<svg version="1.1" id="Layer_1" xmlns="http://www.w3.org/2000/svg" x="0" y="0" viewBox="0 0 198.5 235.5" style="enable-background:new 0 0 198.5 235.5" xml:space="preserve"><style>.st1{fill:#333233}</style><path d="M99.2 2.8c-47.8 0-86.7 38.8-86.7 86.6S51.4 176 99.2 176c47.8 0 86.6-38.8 86.6-86.6.1-47.9-38.7-86.6-86.6-86.6zM152.8 52c5.3 0 9.6 4.3 9.6 9.6s-4.3 9.6-9.6 9.6-9.6-4.3-9.6-9.6 4.3-9.6 9.6-9.6zm-36 0c5.3 0 9.6 4.3 9.6 9.6s-4.3 9.6-9.6 9.6-9.6-4.3-9.6-9.6 4.3-9.6 9.6-9.6zm-36 0c5.3 0 9.6 4.3 9.6 9.6s-4.3 9.6-9.6 9.6-9.6-4.3-9.6-9.6c.1-5.3 4.4-9.6 9.6-9.6zm-35.9 0c5.3 0 9.6 4.3 9.6 9.6s-4.3 9.6-9.6 9.6-9.6-4.3-9.6-9.6 4.3-9.6 9.6-9.6zM31.7 99.2c0 2.6-9.6 2.6-9.6 0V79.6c0-2.7 9.6-2.7 9.6 0v19.6zm22.8 24.9c0 5.3-19.2 5.3-19.2 0V80.3c0-5.3 19.2-5.3 19.2 0v43.8zm13.2-24.9c0 2.6-9.6 2.6-9.6 0V79.6c0-2.7 9.6-2.7 9.6 0v19.6zm22.8 24.9c0 5.3-19.2 5.3-19.2 0V80.3c0-5.3 19.2-5.3 19.2 0v43.8zm13.1-24.9c0 2.6-9.6 2.6-9.6 0V79.6c0-2.7 9.6-2.7 9.6 0v19.6zm22.8 24.9c0 5.3-19.2 5.3-19.2 0V80.3c0-5.3 19.2-5.3 19.2 0v43.8zm13.2-24.9c0 2.6-9.6 2.6-9.6 0V79.6c0-2.7 9.6-2.7 9.6 0v19.6zm22.8 24.9c0 5.3-19.2 5.3-19.2 0V80.3c0-5.3 19.2-5.3 19.2 0v43.8zm3.5-24.9V79.6c0-2.7 9.6-2.7 9.6 0v19.6c0 2.7-9.6 2.7-9.6 0z" style="fill:#61bb46"/><path class="st1" d="M14.5 229.6c0 1.2-1 2.2-2.2 2.2H4.1c-1.2 0-2.2-1-2.2-2.2V190c0-1.2 1-2.2 2.2-2.2h8.2c1.2 0 2.2 1 2.2 2.2v39.6zM175.2 214.7c.6 0 1.1-.5 1.1-1.1 0-.2 0-.3-.1-.5l-5.9-12.7c-.2-.4-.6-.7-1-.7-.5 0-.9.3-1 .7l-5.9 12.7c-.1.1-.1.3-.1.5 0 .6.5 1.1 1.1 1.1h11.8zm-1.3-26.8c1.1 0 2 .6 2.5 1.4l19.9 39.7c.1.3.2.6.2.9 0 1-.9 1.9-1.9 1.9h-8.1c-1 0-2.2-.2-2.9-1.5l-2.4-5.2c-.3-.6-.9-1-1.6-1h-20.9c-.7 0-1.3.4-1.6 1l-2.4 5.2c-.7 1.3-1.8 1.5-2.9 1.5h-8.1c-1.1 0-1.9-.8-1.9-1.9 0-.3.1-.6.2-.9l19.9-39.7c.5-.9 1.4-1.4 2.5-1.4h9.5zM36.2 209.8c0 7.7 6.2 14.2 15.8 14.2 5.2 0 9.2-2.5 11.6-6.3.9-1.5 1.4-2.2 3.4-2.2h8.8c1.6 0 2.3 1.4 2 2.6C75.9 226 66.7 232.8 52 233c-17.2.2-28.5-10.1-28.5-23.1 0-13 11.3-23.4 28.5-23.1 14.7.2 23.9 7 25.8 14.8.3 1.2-.4 2.6-2 2.6H67c-2 0-2.5-.7-3.4-2.2-2.4-3.8-6.4-6.3-11.6-6.3-9.6 0-15.8 6.5-15.8 14.1zM97.5 209.8c0 7.7 6.2 14.2 15.8 14.2 5.2 0 9.2-2.5 11.6-6.3.9-1.5 1.4-2.2 3.4-2.2h8.8c1.6 0 2.3 1.4 2 2.6-1.9 7.8-11.1 14.6-25.8 14.8-17.2.2-28.5-10.1-28.5-23.1 0-13 11.2-23.4 28.5-23.1 14.7.2 23.9 7 25.8 14.8.3 1.2-.4 2.6-2 2.6h-8.8c-2 0-2.5-.7-3.4-2.2-2.4-3.8-6.4-6.3-11.6-6.3-9.7.1-15.8 6.6-15.8 14.2z"/></svg>