<svg width="80" height="80" viewBox="0 0 80 80" fill="none" xmlns="http://www.w3.org/2000/svg">
<path d="M2.31066 59.6586V65.9344C2.31066 66.8098 2.48019 67.4706 2.81755 67.9133C3.1566 68.3561 3.68892 68.5775 4.41789 68.5775C5.14685 68.5775 5.68256 68.3561 6.02501 67.9133C6.36915 67.4706 6.54037 66.8115 6.54037 65.9344V59.6586H8.84764V65.8101C8.84764 67.3547 8.47129 68.535 7.71689 69.349C6.96249 70.1631 5.86226 70.5701 4.41619 70.5701C2.97012 70.5701 1.87158 70.1631 1.12397 69.349C0.374656 68.535 0 67.3547 0 65.8101V59.6586H2.31066ZM10.4649 70.4782V59.6586H12.5569L17.1257 66.4743V59.6586H19.4024V70.4782H17.2952L12.7247 63.6608V70.4782H10.4632H10.4649ZM24.1577 59.6586H32.6815V61.6529H29.5741V70.4782H27.2668V61.6529H24.1594V59.6586H24.1577ZM33.9038 70.0694C33.2732 69.7339 32.7866 69.2571 32.4425 68.6389C32.0983 68.0206 31.9271 67.3105 31.9271 66.5066C31.9271 65.7028 32.0983 64.9926 32.4425 64.3744C32.7866 63.7562 33.2732 63.2793 33.9038 62.9438C34.5344 62.61 35.2651 62.4414 36.0958 62.4414C36.9265 62.4414 37.6571 62.6083 38.2878 62.9438C38.9184 63.2793 39.405 63.7562 39.7491 64.3744C40.0932 64.9926 40.2645 65.7028 40.2645 66.5066C40.2645 67.3105 40.0915 68.0343 39.7491 68.6474C39.405 69.2605 38.9184 69.7339 38.2878 70.0694C37.6571 70.4049 36.9265 70.5718 36.0958 70.5718C35.2651 70.5718 34.5344 70.4049 33.9038 70.0694ZM37.5351 68.1603C37.8894 67.7379 38.0657 67.1861 38.0657 66.5066C38.0657 65.8271 37.8894 65.2753 37.5351 64.8529C37.1808 64.4306 36.701 64.2194 36.0958 64.2194C35.4906 64.2194 35.0261 64.4306 34.6734 64.8529C34.3191 65.2753 34.1428 65.8271 34.1428 66.5066C34.1428 67.1861 34.3191 67.7379 34.6734 68.1603C35.0278 68.5827 35.5007 68.7938 36.0958 68.7938C36.6908 68.7938 37.1808 68.5827 37.5351 68.1603ZM48.7595 62.5334V70.4782H46.837L46.637 69.5193C46.3607 69.8497 46.0369 70.1069 45.6673 70.2925C45.2977 70.4782 44.8468 70.5701 44.3128 70.5701C43.3889 70.5701 42.6362 70.284 42.0513 69.7118C41.4664 69.1396 41.1748 68.1841 41.1748 66.8438V62.5316H43.3448V66.5815C43.3448 67.3036 43.4702 67.8469 43.7211 68.2131C43.972 68.5793 44.3602 68.7615 44.8824 68.7615C45.4045 68.7615 45.847 68.5588 46.1437 68.1518C46.442 67.7447 46.5895 67.1759 46.5895 66.4436V62.5334H48.7595ZM54.9286 62.5334V64.5123H54.0674C53.452 64.5123 53.0011 64.698 52.7129 65.0692C52.4247 65.4405 52.2823 65.9446 52.2823 66.5833V70.4782H50.1123V62.5334H52.0822L52.2823 63.7238C52.5179 63.3321 52.8095 63.0358 53.1587 62.8348C53.5079 62.6338 53.9741 62.5334 54.559 62.5334H54.9286ZM57.7292 59.5734C57.9648 59.805 58.0835 60.0963 58.0835 60.4471C58.0835 60.7979 57.9665 61.0909 57.7292 61.3276C57.4935 61.5643 57.1952 61.6835 56.8375 61.6835C56.4798 61.6835 56.178 61.566 55.9373 61.3276C55.6965 61.0909 55.5762 60.7979 55.5762 60.4471C55.5762 60.0963 55.6965 59.805 55.9373 59.5734C56.178 59.3418 56.4781 59.226 56.8375 59.226C57.1969 59.226 57.4935 59.3418 57.7292 59.5734ZM55.744 62.5334H57.914V70.4782H55.744V62.5334ZM61.0367 67.835C61.0672 68.1858 61.2367 68.4686 61.5452 68.6848C61.8538 68.9011 62.2471 69.0101 62.7302 69.0101C63.2134 69.0101 63.5558 68.9352 63.822 68.7853C64.0882 68.6354 64.2221 68.4226 64.2221 68.1433C64.2221 67.9372 64.1611 67.7822 64.0373 67.68C63.9135 67.5778 63.7389 67.5029 63.5135 67.4552C63.288 67.4092 62.9184 67.3547 62.4047 67.2934C61.708 67.2015 61.1282 67.0822 60.6654 66.9375C60.2043 66.7927 59.8347 66.5662 59.5584 66.258C59.2821 65.9497 59.143 65.5376 59.143 65.0215C59.143 64.5055 59.2837 64.0508 59.5652 63.654C59.8466 63.2572 60.245 62.9506 60.7569 62.7343C61.2689 62.518 61.8589 62.409 62.5268 62.409C63.6033 62.4192 64.473 62.6509 65.1341 63.1039C65.7953 63.5569 66.1513 64.1853 66.2039 64.9892H64.1424C64.1119 64.6911 63.9542 64.4459 63.6728 64.2552C63.3897 64.0644 63.0286 63.969 62.5878 63.969C62.1776 63.969 61.847 64.0457 61.5961 64.2007C61.3452 64.3556 61.2198 64.5617 61.2198 64.8189C61.2198 65.0045 61.2859 65.1442 61.4198 65.2361C61.5537 65.3281 61.7266 65.3962 61.9419 65.4371C62.1572 65.478 62.5166 65.5256 63.0184 65.5767C64.0848 65.7011 64.9036 65.9293 65.4732 66.2648C66.0428 66.6003 66.3276 67.1742 66.3276 67.9883C66.3276 68.5043 66.1767 68.9573 65.8733 69.349C65.5698 69.7407 65.1494 70.0422 64.612 70.2534C64.0729 70.4645 63.4507 70.5701 62.7421 70.5701C61.6453 70.5701 60.7519 70.3249 60.0653 69.8361C59.3787 69.3473 59.0142 68.6797 58.9735 67.835H61.035H61.0367ZM79.0083 63.2912C79.5423 63.8583 79.8084 64.8001 79.8084 66.12V70.4935H77.6385V66.0417C77.6385 64.8359 77.1824 64.233 76.2687 64.233C75.7974 64.233 75.4177 64.3999 75.1295 64.7354C74.843 65.0709 74.6989 65.5376 74.6989 66.1336V70.4918H72.5289V66.04C72.5289 64.8342 72.0678 64.2313 71.1439 64.2313C70.6726 64.2313 70.2946 64.4033 70.0131 64.749C69.7317 65.0948 69.5893 65.5597 69.5893 66.1473V70.4901H67.4194V62.5299H69.3113L69.5113 63.5194C69.7775 63.1788 70.0962 62.9165 70.4658 62.7309C70.8353 62.5453 71.2965 62.4482 71.8508 62.438C72.9782 62.438 73.7631 62.8859 74.2056 63.7834C74.4921 63.3508 74.8701 63.0187 75.3363 62.7871C75.8025 62.5555 76.3331 62.4397 76.9282 62.4397C77.7792 62.4397 78.4709 62.7241 79.0049 63.2895M23.1947 24.0627C25.0935 23.0868 27.1956 22.3085 30.0674 21.5847C31.1218 21.3191 33.3121 21.1096 34.8362 21.0619C36.05 21.0244 36.4789 21.2407 36.8214 21.5694C37.4554 22.1808 37.6215 23.235 37.6215 25.5699V38.8658C37.6215 39.7224 37.3232 40.6574 35.1668 41.2739C32.2102 42.1187 28.2738 42.4508 26.9074 42.5035C25.541 42.5563 23.683 42.0863 22.9235 40.8754C20.7298 37.3841 19.7398 33.806 19.7398 29.7663C19.7398 27.3837 21.4639 24.9057 23.193 24.0627M52.0788 43.5697C52.1195 44.0278 52.3704 44.3309 52.7892 44.4723C53.2231 44.6205 53.8148 44.5472 54.064 44.3003C57.7478 40.6336 60.0093 35.5703 60.0093 29.9775C60.0093 27.8725 59.6686 25.9923 59.1769 24.2586C59.0532 23.8243 58.5887 23.0426 58.1072 22.7769C57.6359 22.5163 57.0951 22.484 56.2712 22.7513C53.0757 23.7902 50.2123 24.7388 48.6052 24.7388C47.327 24.7388 44.3569 23.4786 43.1074 22.9216C42.6412 22.7139 42.309 22.7377 41.9987 22.9234C41.7156 23.0937 41.5037 23.4275 41.5037 23.9435V28.3749C41.5037 29.5602 42.1666 30.8528 43.0752 31.2599C47.8661 33.404 50.487 34.804 51.1193 36.9566C51.3973 37.9036 51.8822 41.388 52.0771 43.5714M39.9034 50.1776C42.2445 50.1776 44.918 49.6888 46.5811 49.028C48.4832 48.2701 49.7088 47.2023 49.6173 44.9049C49.4562 42.6262 48.9663 38.8828 48.7408 38.142C48.4526 37.19 47.0405 36.2243 43.2058 35.0373C42.6209 34.8568 42.1496 34.9726 41.7275 35.2553C41.48 35.4222 41.1765 35.8684 41.1562 36.3742C41.0273 39.5402 40.317 42.2719 37.9487 43.1456C37.3435 43.3704 36.7027 43.5697 36.0364 43.7502C36.0331 43.7502 36.0297 43.7519 36.0297 43.7519C34.2208 44.2407 32.1594 44.6681 30.1945 44.8027C28.3128 44.9321 28.306 46.4819 29.1825 47.0542C32.178 49.0127 35.9619 50.1776 39.9017 50.1776M23.7813 21.1164C24.8697 20.6344 27.2905 19.7284 29.352 19.1238C30.676 18.7355 34.0072 18.5277 36.5874 18.4221C38.5353 18.3302 38.6302 17.5791 38.6302 16.0617V12.2366C38.6302 11.6235 38.5285 10.806 38.042 10.4007C37.5978 10.0294 36.9773 9.93744 36.4247 10.0379C30.5997 11.0938 25.541 14.4812 22.398 19.9123C22.2335 20.195 22.2454 20.6906 22.4675 20.9478C22.737 21.2612 23.288 21.3361 23.7813 21.1198M56.1916 18.1377C53.5198 14.3739 49.4732 11.4923 44.7095 10.3394C42.9854 9.92212 42.943 11.9539 42.943 13.41C42.943 14.7708 42.9311 15.6461 42.3886 16.031C41.8004 16.45 41.224 16.2133 41.1884 17.6711C41.1884 17.7188 41.1867 17.7665 41.1867 17.8193C41.1867 18.601 41.4444 19.1613 42.8311 19.9055C43.538 20.2853 44.8654 20.9478 45.8572 21.3633C47.1185 21.893 48.156 22.1791 48.6069 22.1791C49.9258 22.1791 52.345 21.6495 54.8506 20.8763C55.8813 20.5391 56.3933 20.1371 56.534 19.6926C56.6374 19.3673 56.5662 18.6674 56.1899 18.1394" fill="#0022F5"/>
</svg>
